<?xml version="1.0" standalone="no"?>
<!DOCTYPE svg PUBLIC "-//W3C//DTD SVG 20010904//EN"
 "http://www.w3.org/TR/2001/REC-SVG-20010904/DTD/svg10.dtd">
<svg version="1.0" xmlns="http://www.w3.org/2000/svg"
 width="101.000000pt" height="101.000000pt" viewBox="0 0 101.000000 101.000000"
 preserveAspectRatio="xMidYMid meet">
<metadata>
Created by potrace 1.14, written by Peter Selinger 2001-2017
</metadata>
<g transform="translate(0.000000,101.000000) scale(0.100000,-0.100000)"
fill="#000000" stroke="none">
<path d="M356 738 c-49 -150 -90 -275 -92 -277 -2 -2 -15 4 -30 14 l-27 18 20
-29 c35 -50 128 -258 125 -279 -2 -13 -45 -48 -122 -99 -66 -43 -120 -80 -120
-82 0 -2 179 -4 397 -4 459 0 433 -11 250 104 l-107 68 22 36 c12 21 30 49 40
64 13 20 19 47 20 105 l1 79 -142 277 c-78 152 -143 277 -145 277 -1 0 -42
-123 -90 -272z m308 -303 c-4 -8 -13 -15 -21 -15 -13 0 -13 3 -3 15 7 8 16 15
21 15 5 0 6 -7 3 -15z m-89 -5 c3 -5 2 -10 -4 -10 -5 0 -13 5 -16 10 -3 6 -2
10 4 10 5 0 13 -4 16 -10z m-45 -15 c0 -9 -6 -12 -15 -9 -8 4 -12 10 -9 15 8
14 24 10 24 -6z"/>
</g>
</svg>
